<mxfile host="app.diagrams.net" agent="Mozilla/5.0 (Windows NT 10.0; Win64; x64) AppleWebKit/537.36 (KHTML, like Gecko) Chrome/132.0.0.0 Safari/537.36" version="26.0.10">
  <diagram name="Page-1" id="Mo5LXh9xZfSiJ2UVL5K4">
    <mxGraphModel dx="1674" dy="780" grid="1" gridSize="10" guides="1" tooltips="1" connect="1" arrows="1" fold="1" page="1" pageScale="1" pageWidth="850" pageHeight="1100" math="0" shadow="0">
      <root>
        <mxCell id="0" />
        <mxCell id="1" parent="0" />
        <mxCell id="3YAbdTH7UzKuv2VdQoLU-1" value="TO-BE Process flow Health Membership" style="swimlane;html=1;childLayout=stackLayout;resizeParent=1;resizeParentMax=0;horizontal=0;startSize=20;horizontalStack=0;" vertex="1" parent="1">
          <mxGeometry x="60" y="190" width="1310" height="850" as="geometry" />
        </mxCell>
        <mxCell id="3YAbdTH7UzKuv2VdQoLU-2" value="external system" style="swimlane;html=1;startSize=20;horizontal=0;" vertex="1" parent="3YAbdTH7UzKuv2VdQoLU-1">
          <mxGeometry x="20" width="1290" height="230" as="geometry" />
        </mxCell>
        <mxCell id="3YAbdTH7UzKuv2VdQoLU-3" style="edgeStyle=orthogonalEdgeStyle;rounded=0;orthogonalLoop=1;jettySize=auto;html=1;exitX=0.5;exitY=1;exitDx=0;exitDy=0;entryX=0.5;entryY=0;entryDx=0;entryDy=0;" edge="1" parent="3YAbdTH7UzKuv2VdQoLU-2" source="3YAbdTH7UzKuv2VdQoLU-4" target="3YAbdTH7UzKuv2VdQoLU-7">
          <mxGeometry relative="1" as="geometry" />
        </mxCell>
        <mxCell id="3YAbdTH7UzKuv2VdQoLU-4" value="start" style="ellipse;whiteSpace=wrap;html=1;" vertex="1" parent="3YAbdTH7UzKuv2VdQoLU-2">
          <mxGeometry x="40" y="10" width="40" height="40" as="geometry" />
        </mxCell>
        <mxCell id="3YAbdTH7UzKuv2VdQoLU-5" style="edgeStyle=orthogonalEdgeStyle;rounded=0;orthogonalLoop=1;jettySize=auto;html=1;exitX=0.5;exitY=1;exitDx=0;exitDy=0;" edge="1" parent="3YAbdTH7UzKuv2VdQoLU-2" source="3YAbdTH7UzKuv2VdQoLU-7">
          <mxGeometry relative="1" as="geometry">
            <mxPoint x="60" y="140" as="targetPoint" />
          </mxGeometry>
        </mxCell>
        <mxCell id="3YAbdTH7UzKuv2VdQoLU-6" style="edgeStyle=orthogonalEdgeStyle;rounded=0;orthogonalLoop=1;jettySize=auto;html=1;exitX=1;exitY=0.5;exitDx=0;exitDy=0;" edge="1" parent="3YAbdTH7UzKuv2VdQoLU-2" source="3YAbdTH7UzKuv2VdQoLU-7">
          <mxGeometry relative="1" as="geometry">
            <mxPoint x="110" y="-50" as="targetPoint" />
          </mxGeometry>
        </mxCell>
        <mxCell id="3YAbdTH7UzKuv2VdQoLU-7" value="&amp;nbsp;creates workflow" style="rounded=1;whiteSpace=wrap;html=1;absoluteArcSize=1;arcSize=14;strokeWidth=2;" vertex="1" parent="3YAbdTH7UzKuv2VdQoLU-2">
          <mxGeometry x="30" y="70" width="60" height="50" as="geometry" />
        </mxCell>
        <mxCell id="3YAbdTH7UzKuv2VdQoLU-8" style="edgeStyle=orthogonalEdgeStyle;rounded=0;orthogonalLoop=1;jettySize=auto;html=1;exitX=0.5;exitY=1;exitDx=0;exitDy=0;" edge="1" parent="3YAbdTH7UzKuv2VdQoLU-2" source="3YAbdTH7UzKuv2VdQoLU-9">
          <mxGeometry relative="1" as="geometry">
            <mxPoint x="65" y="270" as="targetPoint" />
          </mxGeometry>
        </mxCell>
        <mxCell id="3YAbdTH7UzKuv2VdQoLU-9" value="captures interactions" style="rounded=1;whiteSpace=wrap;html=1;absoluteArcSize=1;arcSize=14;strokeWidth=2;" vertex="1" parent="3YAbdTH7UzKuv2VdQoLU-2">
          <mxGeometry x="30" y="140" width="70" height="50" as="geometry" />
        </mxCell>
        <mxCell id="3YAbdTH7UzKuv2VdQoLU-10" style="edgeStyle=orthogonalEdgeStyle;rounded=0;orthogonalLoop=1;jettySize=auto;html=1;entryX=0.5;entryY=1;entryDx=0;entryDy=0;" edge="1" parent="3YAbdTH7UzKuv2VdQoLU-2" source="3YAbdTH7UzKuv2VdQoLU-12" target="3YAbdTH7UzKuv2VdQoLU-13">
          <mxGeometry relative="1" as="geometry" />
        </mxCell>
        <mxCell id="3YAbdTH7UzKuv2VdQoLU-11" style="edgeStyle=orthogonalEdgeStyle;rounded=0;orthogonalLoop=1;jettySize=auto;html=1;entryX=0.5;entryY=1;entryDx=0;entryDy=0;" edge="1" parent="3YAbdTH7UzKuv2VdQoLU-2" source="3YAbdTH7UzKuv2VdQoLU-12" target="3YAbdTH7UzKuv2VdQoLU-15">
          <mxGeometry relative="1" as="geometry" />
        </mxCell>
        <mxCell id="3YAbdTH7UzKuv2VdQoLU-12" value="" style="strokeWidth=2;html=1;shape=mxgraph.flowchart.decision;whiteSpace=wrap;" vertex="1" parent="3YAbdTH7UzKuv2VdQoLU-2">
          <mxGeometry x="577" y="160" width="40" height="30" as="geometry" />
        </mxCell>
        <mxCell id="3YAbdTH7UzKuv2VdQoLU-13" value="provide putty stats" style="rounded=1;whiteSpace=wrap;html=1;absoluteArcSize=1;arcSize=14;strokeWidth=2;" vertex="1" parent="3YAbdTH7UzKuv2VdQoLU-2">
          <mxGeometry x="471" y="100" width="80" height="30" as="geometry" />
        </mxCell>
        <mxCell id="3YAbdTH7UzKuv2VdQoLU-14" style="edgeStyle=orthogonalEdgeStyle;rounded=0;orthogonalLoop=1;jettySize=auto;html=1;exitX=0.5;exitY=0;exitDx=0;exitDy=0;" edge="1" parent="3YAbdTH7UzKuv2VdQoLU-2" source="3YAbdTH7UzKuv2VdQoLU-15">
          <mxGeometry relative="1" as="geometry">
            <mxPoint x="676" y="-50" as="targetPoint" />
          </mxGeometry>
        </mxCell>
        <mxCell id="3YAbdTH7UzKuv2VdQoLU-15" value="provides workflow stats" style="rounded=1;whiteSpace=wrap;html=1;absoluteArcSize=1;arcSize=14;strokeWidth=2;" vertex="1" parent="3YAbdTH7UzKuv2VdQoLU-2">
          <mxGeometry x="631" y="100" width="90" height="30" as="geometry" />
        </mxCell>
        <mxCell id="3YAbdTH7UzKuv2VdQoLU-16" style="edgeStyle=orthogonalEdgeStyle;rounded=0;orthogonalLoop=1;jettySize=auto;html=1;exitX=0.5;exitY=1;exitDx=0;exitDy=0;exitPerimeter=0;" edge="1" parent="3YAbdTH7UzKuv2VdQoLU-2" source="3YAbdTH7UzKuv2VdQoLU-17">
          <mxGeometry relative="1" as="geometry">
            <mxPoint x="786" y="620.6666259765625" as="targetPoint" />
          </mxGeometry>
        </mxCell>
        <mxCell id="3YAbdTH7UzKuv2VdQoLU-17" value="" style="strokeWidth=2;html=1;shape=mxgraph.flowchart.decision;whiteSpace=wrap;" vertex="1" parent="3YAbdTH7UzKuv2VdQoLU-2">
          <mxGeometry x="771" y="102.5" width="30" height="25" as="geometry" />
        </mxCell>
        <mxCell id="3YAbdTH7UzKuv2VdQoLU-18" style="edgeStyle=orthogonalEdgeStyle;rounded=0;orthogonalLoop=1;jettySize=auto;html=1;exitX=0.5;exitY=0;exitDx=0;exitDy=0;entryX=0.5;entryY=0;entryDx=0;entryDy=0;entryPerimeter=0;" edge="1" parent="3YAbdTH7UzKuv2VdQoLU-2" source="3YAbdTH7UzKuv2VdQoLU-13" target="3YAbdTH7UzKuv2VdQoLU-17">
          <mxGeometry relative="1" as="geometry" />
        </mxCell>
        <mxCell id="3YAbdTH7UzKuv2VdQoLU-19" style="edgeStyle=orthogonalEdgeStyle;rounded=0;orthogonalLoop=1;jettySize=auto;html=1;exitX=0.5;exitY=0;exitDx=0;exitDy=0;" edge="1" parent="3YAbdTH7UzKuv2VdQoLU-2" source="3YAbdTH7UzKuv2VdQoLU-20">
          <mxGeometry relative="1" as="geometry">
            <mxPoint x="1044" y="80" as="targetPoint" />
          </mxGeometry>
        </mxCell>
        <mxCell id="3YAbdTH7UzKuv2VdQoLU-20" value="Queues for payroll" style="rounded=1;whiteSpace=wrap;html=1;absoluteArcSize=1;arcSize=14;strokeWidth=2;" vertex="1" parent="3YAbdTH7UzKuv2VdQoLU-2">
          <mxGeometry x="1085" y="150" width="104" height="30" as="geometry" />
        </mxCell>
        <mxCell id="3YAbdTH7UzKuv2VdQoLU-21" value="" style="ellipse;html=1;shape=endState;fillColor=strokeColor;" vertex="1" parent="3YAbdTH7UzKuv2VdQoLU-2">
          <mxGeometry x="1020" y="30" width="50" height="50" as="geometry" />
        </mxCell>
        <mxCell id="3YAbdTH7UzKuv2VdQoLU-22" style="edgeStyle=orthogonalEdgeStyle;rounded=0;orthogonalLoop=1;jettySize=auto;html=1;entryX=0;entryY=0.5;entryDx=0;entryDy=0;entryPerimeter=0;" edge="1" parent="3YAbdTH7UzKuv2VdQoLU-2" source="3YAbdTH7UzKuv2VdQoLU-15" target="3YAbdTH7UzKuv2VdQoLU-17">
          <mxGeometry relative="1" as="geometry" />
        </mxCell>
        <mxCell id="3YAbdTH7UzKuv2VdQoLU-23" value="QA agent portal" style="swimlane;html=1;startSize=20;horizontal=0;" vertex="1" parent="3YAbdTH7UzKuv2VdQoLU-1">
          <mxGeometry x="20" y="230" width="1290" height="360" as="geometry" />
        </mxCell>
        <mxCell id="3YAbdTH7UzKuv2VdQoLU-24" value="go through work flow" style="rounded=1;whiteSpace=wrap;html=1;absoluteArcSize=1;arcSize=14;strokeWidth=2;" vertex="1" parent="3YAbdTH7UzKuv2VdQoLU-23">
          <mxGeometry x="40" y="40" width="60" height="40" as="geometry" />
        </mxCell>
        <mxCell id="3YAbdTH7UzKuv2VdQoLU-25" value="Audits for policy amendments" style="rounded=1;whiteSpace=wrap;html=1;absoluteArcSize=1;arcSize=14;strokeWidth=2;" vertex="1" parent="3YAbdTH7UzKuv2VdQoLU-23">
          <mxGeometry x="100" y="260" width="130" height="40" as="geometry" />
        </mxCell>
        <mxCell id="3YAbdTH7UzKuv2VdQoLU-26" style="edgeStyle=orthogonalEdgeStyle;rounded=0;orthogonalLoop=1;jettySize=auto;html=1;exitX=0.5;exitY=0;exitDx=0;exitDy=0;" edge="1" parent="3YAbdTH7UzKuv2VdQoLU-23" source="3YAbdTH7UzKuv2VdQoLU-27">
          <mxGeometry relative="1" as="geometry">
            <mxPoint x="170" y="110" as="targetPoint" />
          </mxGeometry>
        </mxCell>
        <mxCell id="3YAbdTH7UzKuv2VdQoLU-27" value="audits for r&lt;span style=&quot;line-height: 107%; font-family: Aptos, sans-serif;&quot;&gt;&lt;font style=&quot;font-size: 12px;&quot;&gt;eady to process - application&lt;/font&gt;&lt;/span&gt;" style="rounded=1;whiteSpace=wrap;html=1;absoluteArcSize=1;arcSize=14;strokeWidth=2;" vertex="1" parent="3YAbdTH7UzKuv2VdQoLU-23">
          <mxGeometry x="120" y="140" width="100" height="40" as="geometry" />
        </mxCell>
        <mxCell id="3YAbdTH7UzKuv2VdQoLU-28" style="edgeStyle=orthogonalEdgeStyle;rounded=0;orthogonalLoop=1;jettySize=auto;html=1;exitX=0;exitY=0.5;exitDx=0;exitDy=0;exitPerimeter=0;" edge="1" parent="3YAbdTH7UzKuv2VdQoLU-23" source="3YAbdTH7UzKuv2VdQoLU-29">
          <mxGeometry relative="1" as="geometry">
            <mxPoint x="170" y="180" as="targetPoint" />
          </mxGeometry>
        </mxCell>
        <mxCell id="3YAbdTH7UzKuv2VdQoLU-29" value="" style="strokeWidth=2;html=1;shape=mxgraph.flowchart.decision;whiteSpace=wrap;direction=south;" vertex="1" parent="3YAbdTH7UzKuv2VdQoLU-23">
          <mxGeometry x="155" y="200" width="30" height="30" as="geometry" />
        </mxCell>
        <mxCell id="3YAbdTH7UzKuv2VdQoLU-30" style="edgeStyle=orthogonalEdgeStyle;rounded=0;orthogonalLoop=1;jettySize=auto;html=1;exitX=0.5;exitY=0;exitDx=0;exitDy=0;exitPerimeter=0;" edge="1" parent="3YAbdTH7UzKuv2VdQoLU-23" source="3YAbdTH7UzKuv2VdQoLU-31">
          <mxGeometry relative="1" as="geometry">
            <mxPoint x="170" y="60" as="targetPoint" />
          </mxGeometry>
        </mxCell>
        <mxCell id="3YAbdTH7UzKuv2VdQoLU-31" value="" style="strokeWidth=2;html=1;shape=mxgraph.flowchart.decision;whiteSpace=wrap;" vertex="1" parent="3YAbdTH7UzKuv2VdQoLU-23">
          <mxGeometry x="155" y="80" width="30" height="30" as="geometry" />
        </mxCell>
        <mxCell id="3YAbdTH7UzKuv2VdQoLU-32" style="edgeStyle=orthogonalEdgeStyle;rounded=0;orthogonalLoop=1;jettySize=auto;html=1;exitX=0.5;exitY=0;exitDx=0;exitDy=0;entryX=1;entryY=0.5;entryDx=0;entryDy=0;entryPerimeter=0;" edge="1" parent="3YAbdTH7UzKuv2VdQoLU-23" source="3YAbdTH7UzKuv2VdQoLU-25" target="3YAbdTH7UzKuv2VdQoLU-29">
          <mxGeometry relative="1" as="geometry" />
        </mxCell>
        <mxCell id="3YAbdTH7UzKuv2VdQoLU-33" value="audits for additional dependent" style="rounded=1;whiteSpace=wrap;html=1;absoluteArcSize=1;arcSize=14;strokeWidth=2;" vertex="1" parent="3YAbdTH7UzKuv2VdQoLU-23">
          <mxGeometry x="120" y="10" width="100" height="45" as="geometry" />
        </mxCell>
        <mxCell id="3YAbdTH7UzKuv2VdQoLU-34" style="edgeStyle=orthogonalEdgeStyle;rounded=0;orthogonalLoop=1;jettySize=auto;html=1;exitX=1;exitY=0.5;exitDx=0;exitDy=0;" edge="1" parent="3YAbdTH7UzKuv2VdQoLU-23">
          <mxGeometry relative="1" as="geometry">
            <mxPoint x="490" y="330" as="targetPoint" />
            <mxPoint x="412" y="32.5" as="sourcePoint" />
          </mxGeometry>
        </mxCell>
        <mxCell id="3YAbdTH7UzKuv2VdQoLU-35" value="audits for cancellation" style="rounded=1;whiteSpace=wrap;html=1;absoluteArcSize=1;arcSize=20;strokeWidth=2;" vertex="1" parent="3YAbdTH7UzKuv2VdQoLU-23">
          <mxGeometry x="330" y="15" width="80" height="35" as="geometry" />
        </mxCell>
        <mxCell id="3YAbdTH7UzKuv2VdQoLU-36" style="edgeStyle=orthogonalEdgeStyle;rounded=0;orthogonalLoop=1;jettySize=auto;html=1;exitX=1;exitY=0.5;exitDx=0;exitDy=0;exitPerimeter=0;entryX=0;entryY=0.5;entryDx=0;entryDy=0;" edge="1" parent="3YAbdTH7UzKuv2VdQoLU-23" source="3YAbdTH7UzKuv2VdQoLU-37" target="3YAbdTH7UzKuv2VdQoLU-35">
          <mxGeometry relative="1" as="geometry" />
        </mxCell>
        <mxCell id="3YAbdTH7UzKuv2VdQoLU-37" value="" style="strokeWidth=2;html=1;shape=mxgraph.flowchart.decision;whiteSpace=wrap;" vertex="1" parent="3YAbdTH7UzKuv2VdQoLU-23">
          <mxGeometry x="260" y="16.25" width="30" height="32.5" as="geometry" />
        </mxCell>
        <mxCell id="3YAbdTH7UzKuv2VdQoLU-38" style="edgeStyle=orthogonalEdgeStyle;rounded=0;orthogonalLoop=1;jettySize=auto;html=1;exitX=0.5;exitY=1;exitDx=0;exitDy=0;exitPerimeter=0;entryX=0.5;entryY=0;entryDx=0;entryDy=0;" edge="1" parent="3YAbdTH7UzKuv2VdQoLU-23" source="3YAbdTH7UzKuv2VdQoLU-40" target="3YAbdTH7UzKuv2VdQoLU-43">
          <mxGeometry relative="1" as="geometry" />
        </mxCell>
        <mxCell id="3YAbdTH7UzKuv2VdQoLU-39" style="edgeStyle=orthogonalEdgeStyle;rounded=0;orthogonalLoop=1;jettySize=auto;html=1;exitX=1;exitY=0.5;exitDx=0;exitDy=0;exitPerimeter=0;entryX=0.881;entryY=0.7;entryDx=0;entryDy=0;entryPerimeter=0;" edge="1" parent="3YAbdTH7UzKuv2VdQoLU-23">
          <mxGeometry relative="1" as="geometry">
            <mxPoint x="466.68000000000006" y="336.5" as="targetPoint" />
            <mxPoint x="380" y="93.5" as="sourcePoint" />
          </mxGeometry>
        </mxCell>
        <mxCell id="3YAbdTH7UzKuv2VdQoLU-40" value="" style="strokeWidth=2;html=1;shape=mxgraph.flowchart.decision;whiteSpace=wrap;" vertex="1" parent="3YAbdTH7UzKuv2VdQoLU-23">
          <mxGeometry x="350" y="80" width="30" height="30" as="geometry" />
        </mxCell>
        <mxCell id="3YAbdTH7UzKuv2VdQoLU-41" style="edgeStyle=orthogonalEdgeStyle;rounded=0;orthogonalLoop=1;jettySize=auto;html=1;exitX=1;exitY=0.5;exitDx=0;exitDy=0;" edge="1" parent="3YAbdTH7UzKuv2VdQoLU-23" source="3YAbdTH7UzKuv2VdQoLU-43">
          <mxGeometry relative="1" as="geometry">
            <mxPoint x="440" y="330" as="targetPoint" />
          </mxGeometry>
        </mxCell>
        <mxCell id="3YAbdTH7UzKuv2VdQoLU-42" style="edgeStyle=orthogonalEdgeStyle;rounded=0;orthogonalLoop=1;jettySize=auto;html=1;exitX=0.5;exitY=1;exitDx=0;exitDy=0;" edge="1" parent="3YAbdTH7UzKuv2VdQoLU-23" source="3YAbdTH7UzKuv2VdQoLU-43">
          <mxGeometry relative="1" as="geometry">
            <mxPoint x="365" y="220" as="targetPoint" />
          </mxGeometry>
        </mxCell>
        <mxCell id="3YAbdTH7UzKuv2VdQoLU-43" value="audits for dependent Removal&amp;nbsp;" style="rounded=1;whiteSpace=wrap;html=1;absoluteArcSize=1;arcSize=14;strokeWidth=2;" vertex="1" parent="3YAbdTH7UzKuv2VdQoLU-23">
          <mxGeometry x="315" y="150" width="100" height="40" as="geometry" />
        </mxCell>
        <mxCell id="3YAbdTH7UzKuv2VdQoLU-44" value="" style="line;strokeWidth=2;html=1;" vertex="1" parent="3YAbdTH7UzKuv2VdQoLU-23">
          <mxGeometry x="220" y="331" width="280" height="10" as="geometry" />
        </mxCell>
        <mxCell id="3YAbdTH7UzKuv2VdQoLU-45" style="edgeStyle=orthogonalEdgeStyle;rounded=0;orthogonalLoop=1;jettySize=auto;html=1;exitX=1;exitY=0.5;exitDx=0;exitDy=0;exitPerimeter=0;entryX=0.106;entryY=0.233;entryDx=0;entryDy=0;entryPerimeter=0;" edge="1" parent="3YAbdTH7UzKuv2VdQoLU-23" source="3YAbdTH7UzKuv2VdQoLU-31" target="3YAbdTH7UzKuv2VdQoLU-44">
          <mxGeometry relative="1" as="geometry">
            <Array as="points">
              <mxPoint x="249" y="95" />
            </Array>
          </mxGeometry>
        </mxCell>
        <mxCell id="3YAbdTH7UzKuv2VdQoLU-46" style="edgeStyle=orthogonalEdgeStyle;rounded=0;orthogonalLoop=1;jettySize=auto;html=1;exitX=0.5;exitY=0;exitDx=0;exitDy=0;exitPerimeter=0;entryX=0.063;entryY=0.233;entryDx=0;entryDy=0;entryPerimeter=0;" edge="1" parent="3YAbdTH7UzKuv2VdQoLU-23" source="3YAbdTH7UzKuv2VdQoLU-29" target="3YAbdTH7UzKuv2VdQoLU-44">
          <mxGeometry relative="1" as="geometry" />
        </mxCell>
        <mxCell id="3YAbdTH7UzKuv2VdQoLU-47" style="edgeStyle=orthogonalEdgeStyle;rounded=0;orthogonalLoop=1;jettySize=auto;html=1;exitX=1;exitY=0.5;exitDx=0;exitDy=0;entryX=0;entryY=0.5;entryDx=0;entryDy=0;entryPerimeter=0;" edge="1" parent="3YAbdTH7UzKuv2VdQoLU-23" source="3YAbdTH7UzKuv2VdQoLU-33" target="3YAbdTH7UzKuv2VdQoLU-37">
          <mxGeometry relative="1" as="geometry" />
        </mxCell>
        <mxCell id="3YAbdTH7UzKuv2VdQoLU-48" style="edgeStyle=orthogonalEdgeStyle;rounded=0;orthogonalLoop=1;jettySize=auto;html=1;exitX=0.5;exitY=1;exitDx=0;exitDy=0;entryX=0.5;entryY=0;entryDx=0;entryDy=0;entryPerimeter=0;" edge="1" parent="3YAbdTH7UzKuv2VdQoLU-23" source="3YAbdTH7UzKuv2VdQoLU-35" target="3YAbdTH7UzKuv2VdQoLU-40">
          <mxGeometry relative="1" as="geometry" />
        </mxCell>
        <mxCell id="3YAbdTH7UzKuv2VdQoLU-49" value="audits for queries" style="rounded=1;whiteSpace=wrap;html=1;absoluteArcSize=1;arcSize=14;strokeWidth=2;" vertex="1" parent="3YAbdTH7UzKuv2VdQoLU-23">
          <mxGeometry x="320" y="220" width="90" height="50" as="geometry" />
        </mxCell>
        <mxCell id="3YAbdTH7UzKuv2VdQoLU-50" value="REM digital system" style="swimlane;html=1;startSize=20;horizontal=0;" vertex="1" parent="3YAbdTH7UzKuv2VdQoLU-1">
          <mxGeometry x="20" y="590" width="1290" height="260" as="geometry" />
        </mxCell>
        <mxCell id="3YAbdTH7UzKuv2VdQoLU-51" value="captures general information" style="rounded=1;whiteSpace=wrap;html=1;absoluteArcSize=1;arcSize=14;strokeWidth=2;" vertex="1" parent="3YAbdTH7UzKuv2VdQoLU-50">
          <mxGeometry x="35" y="20" width="70" height="50" as="geometry" />
        </mxCell>
        <mxCell id="3YAbdTH7UzKuv2VdQoLU-52" style="edgeStyle=orthogonalEdgeStyle;rounded=0;orthogonalLoop=1;jettySize=auto;html=1;exitX=0.5;exitY=1;exitDx=0;exitDy=0;" edge="1" parent="3YAbdTH7UzKuv2VdQoLU-50" source="3YAbdTH7UzKuv2VdQoLU-53">
          <mxGeometry relative="1" as="geometry">
            <mxPoint x="363" y="90" as="targetPoint" />
          </mxGeometry>
        </mxCell>
        <mxCell id="3YAbdTH7UzKuv2VdQoLU-53" value="update scorecard" style="rounded=1;whiteSpace=wrap;html=1;absoluteArcSize=1;arcSize=14;strokeWidth=2;" vertex="1" parent="3YAbdTH7UzKuv2VdQoLU-50">
          <mxGeometry x="328" y="30" width="70" height="40" as="geometry" />
        </mxCell>
        <mxCell id="3YAbdTH7UzKuv2VdQoLU-54" style="edgeStyle=orthogonalEdgeStyle;rounded=0;orthogonalLoop=1;jettySize=auto;html=1;exitX=1;exitY=0.5;exitDx=0;exitDy=0;entryX=0;entryY=0.5;entryDx=0;entryDy=0;" edge="1" parent="3YAbdTH7UzKuv2VdQoLU-50" source="3YAbdTH7UzKuv2VdQoLU-55" target="3YAbdTH7UzKuv2VdQoLU-72">
          <mxGeometry relative="1" as="geometry" />
        </mxCell>
        <mxCell id="3YAbdTH7UzKuv2VdQoLU-55" value="updates digital master sheet" style="rounded=1;whiteSpace=wrap;html=1;absoluteArcSize=1;arcSize=14;strokeWidth=2;" vertex="1" parent="3YAbdTH7UzKuv2VdQoLU-50">
          <mxGeometry x="317" y="140" width="105" height="30" as="geometry" />
        </mxCell>
        <mxCell id="3YAbdTH7UzKuv2VdQoLU-56" style="edgeStyle=orthogonalEdgeStyle;rounded=0;orthogonalLoop=1;jettySize=auto;html=1;exitX=1;exitY=0.5;exitDx=0;exitDy=0;exitPerimeter=0;entryX=0.5;entryY=0;entryDx=0;entryDy=0;" edge="1" parent="3YAbdTH7UzKuv2VdQoLU-50" source="3YAbdTH7UzKuv2VdQoLU-59" target="3YAbdTH7UzKuv2VdQoLU-64">
          <mxGeometry relative="1" as="geometry" />
        </mxCell>
        <mxCell id="3YAbdTH7UzKuv2VdQoLU-57" style="edgeStyle=orthogonalEdgeStyle;rounded=0;orthogonalLoop=1;jettySize=auto;html=1;exitX=0;exitY=0.5;exitDx=0;exitDy=0;exitPerimeter=0;entryX=0.5;entryY=0;entryDx=0;entryDy=0;" edge="1" parent="3YAbdTH7UzKuv2VdQoLU-50" source="3YAbdTH7UzKuv2VdQoLU-59" target="3YAbdTH7UzKuv2VdQoLU-61">
          <mxGeometry relative="1" as="geometry" />
        </mxCell>
        <mxCell id="3YAbdTH7UzKuv2VdQoLU-58" style="edgeStyle=orthogonalEdgeStyle;rounded=0;orthogonalLoop=1;jettySize=auto;html=1;exitX=0.501;exitY=0.719;exitDx=0;exitDy=0;exitPerimeter=0;" edge="1" parent="3YAbdTH7UzKuv2VdQoLU-50" source="3YAbdTH7UzKuv2VdQoLU-59">
          <mxGeometry relative="1" as="geometry">
            <mxPoint x="786.04347826087" y="158" as="targetPoint" />
            <mxPoint x="786" y="68" as="sourcePoint" />
          </mxGeometry>
        </mxCell>
        <mxCell id="3YAbdTH7UzKuv2VdQoLU-59" value="" style="strokeWidth=2;html=1;shape=mxgraph.flowchart.decision;whiteSpace=wrap;" vertex="1" parent="3YAbdTH7UzKuv2VdQoLU-50">
          <mxGeometry x="771" y="30" width="30" height="30" as="geometry" />
        </mxCell>
        <mxCell id="3YAbdTH7UzKuv2VdQoLU-60" style="edgeStyle=orthogonalEdgeStyle;rounded=0;orthogonalLoop=1;jettySize=auto;html=1;exitX=1;exitY=0.5;exitDx=0;exitDy=0;entryX=0;entryY=0.5;entryDx=0;entryDy=0;" edge="1" parent="3YAbdTH7UzKuv2VdQoLU-50" source="3YAbdTH7UzKuv2VdQoLU-61" target="3YAbdTH7UzKuv2VdQoLU-63">
          <mxGeometry relative="1" as="geometry" />
        </mxCell>
        <mxCell id="3YAbdTH7UzKuv2VdQoLU-61" value="calculates stats vs target" style="rounded=1;whiteSpace=wrap;html=1;absoluteArcSize=1;arcSize=14;strokeWidth=2;" vertex="1" parent="3YAbdTH7UzKuv2VdQoLU-50">
          <mxGeometry x="630" y="165" width="90" height="30" as="geometry" />
        </mxCell>
        <mxCell id="3YAbdTH7UzKuv2VdQoLU-62" style="edgeStyle=orthogonalEdgeStyle;rounded=0;orthogonalLoop=1;jettySize=auto;html=1;exitX=1;exitY=0.5;exitDx=0;exitDy=0;" edge="1" parent="3YAbdTH7UzKuv2VdQoLU-50" source="3YAbdTH7UzKuv2VdQoLU-63">
          <mxGeometry relative="1" as="geometry">
            <mxPoint x="860" y="180.28571428571445" as="targetPoint" />
          </mxGeometry>
        </mxCell>
        <mxCell id="3YAbdTH7UzKuv2VdQoLU-63" value="calculates days worked vs production days" style="rounded=1;whiteSpace=wrap;html=1;absoluteArcSize=1;arcSize=14;strokeWidth=2;" vertex="1" parent="3YAbdTH7UzKuv2VdQoLU-50">
          <mxGeometry x="750" y="160" width="90" height="40" as="geometry" />
        </mxCell>
        <mxCell id="3YAbdTH7UzKuv2VdQoLU-64" value="Calculates QA vs target" style="rounded=1;whiteSpace=wrap;html=1;absoluteArcSize=1;arcSize=14;strokeWidth=2;" vertex="1" parent="3YAbdTH7UzKuv2VdQoLU-50">
          <mxGeometry x="860" y="160" width="81" height="30" as="geometry" />
        </mxCell>
        <mxCell id="3YAbdTH7UzKuv2VdQoLU-65" style="edgeStyle=orthogonalEdgeStyle;rounded=0;orthogonalLoop=1;jettySize=auto;html=1;exitX=1;exitY=0.5;exitDx=0;exitDy=0;entryX=0;entryY=0.5;entryDx=0;entryDy=0;entryPerimeter=0;" edge="1" parent="3YAbdTH7UzKuv2VdQoLU-50" source="3YAbdTH7UzKuv2VdQoLU-64" target="3YAbdTH7UzKuv2VdQoLU-73">
          <mxGeometry relative="1" as="geometry" />
        </mxCell>
        <mxCell id="3YAbdTH7UzKuv2VdQoLU-66" value="calculates the REM amount" style="rounded=1;whiteSpace=wrap;html=1;absoluteArcSize=1;arcSize=14;strokeWidth=2;" vertex="1" parent="3YAbdTH7UzKuv2VdQoLU-50">
          <mxGeometry x="1080" y="150" width="114" height="30" as="geometry" />
        </mxCell>
        <mxCell id="3YAbdTH7UzKuv2VdQoLU-67" value="sends to team leader/manager" style="rounded=1;whiteSpace=wrap;html=1;absoluteArcSize=1;arcSize=14;strokeWidth=2;" vertex="1" parent="3YAbdTH7UzKuv2VdQoLU-50">
          <mxGeometry x="1085" y="60" width="104" height="30" as="geometry" />
        </mxCell>
        <mxCell id="3YAbdTH7UzKuv2VdQoLU-68" style="edgeStyle=orthogonalEdgeStyle;rounded=0;orthogonalLoop=1;jettySize=auto;html=1;exitX=0.5;exitY=0;exitDx=0;exitDy=0;" edge="1" parent="3YAbdTH7UzKuv2VdQoLU-50" source="3YAbdTH7UzKuv2VdQoLU-66" target="3YAbdTH7UzKuv2VdQoLU-67">
          <mxGeometry relative="1" as="geometry">
            <mxPoint x="1005" y="90" as="targetPoint" />
          </mxGeometry>
        </mxCell>
        <mxCell id="3YAbdTH7UzKuv2VdQoLU-69" style="edgeStyle=orthogonalEdgeStyle;rounded=0;orthogonalLoop=1;jettySize=auto;html=1;entryX=0.667;entryY=-0.017;entryDx=0;entryDy=0;entryPerimeter=0;" edge="1" parent="3YAbdTH7UzKuv2VdQoLU-50">
          <mxGeometry relative="1" as="geometry">
            <mxPoint x="365" y="-90" as="sourcePoint" />
            <mxPoint x="364.69000000000005" y="29.999999999999886" as="targetPoint" />
          </mxGeometry>
        </mxCell>
        <mxCell id="3YAbdTH7UzKuv2VdQoLU-70" style="edgeStyle=orthogonalEdgeStyle;rounded=0;orthogonalLoop=1;jettySize=auto;html=1;exitX=0.5;exitY=1;exitDx=0;exitDy=0;" edge="1" parent="3YAbdTH7UzKuv2VdQoLU-50" source="3YAbdTH7UzKuv2VdQoLU-71">
          <mxGeometry relative="1" as="geometry">
            <mxPoint x="363" y="140" as="targetPoint" />
          </mxGeometry>
        </mxCell>
        <mxCell id="3YAbdTH7UzKuv2VdQoLU-71" value="calculates agent scores" style="rounded=1;whiteSpace=wrap;html=1;absoluteArcSize=1;arcSize=14;strokeWidth=2;" vertex="1" parent="3YAbdTH7UzKuv2VdQoLU-50">
          <mxGeometry x="317" y="90" width="92" height="30" as="geometry" />
        </mxCell>
        <mxCell id="3YAbdTH7UzKuv2VdQoLU-72" value="extracts workflow and putty stats" style="rounded=1;whiteSpace=wrap;html=1;absoluteArcSize=1;arcSize=14;strokeWidth=2;" vertex="1" parent="3YAbdTH7UzKuv2VdQoLU-50">
          <mxGeometry x="450" y="140" width="100" height="30" as="geometry" />
        </mxCell>
        <mxCell id="3YAbdTH7UzKuv2VdQoLU-73" value="" style="strokeWidth=2;html=1;shape=mxgraph.flowchart.decision;whiteSpace=wrap;" vertex="1" parent="3YAbdTH7UzKuv2VdQoLU-50">
          <mxGeometry x="980" y="160" width="30" height="30" as="geometry" />
        </mxCell>
        <mxCell id="3YAbdTH7UzKuv2VdQoLU-74" style="edgeStyle=orthogonalEdgeStyle;rounded=0;orthogonalLoop=1;jettySize=auto;html=1;exitX=0.5;exitY=1;exitDx=0;exitDy=0;entryX=1;entryY=0.5;entryDx=0;entryDy=0;entryPerimeter=0;" edge="1" parent="3YAbdTH7UzKuv2VdQoLU-50" source="3YAbdTH7UzKuv2VdQoLU-61" target="3YAbdTH7UzKuv2VdQoLU-73">
          <mxGeometry relative="1" as="geometry">
            <Array as="points">
              <mxPoint x="675" y="240" />
              <mxPoint x="1030" y="240" />
              <mxPoint x="1030" y="175" />
            </Array>
          </mxGeometry>
        </mxCell>
        <mxCell id="3YAbdTH7UzKuv2VdQoLU-75" style="edgeStyle=orthogonalEdgeStyle;rounded=0;orthogonalLoop=1;jettySize=auto;html=1;exitX=0.5;exitY=1;exitDx=0;exitDy=0;entryX=0.5;entryY=1;entryDx=0;entryDy=0;entryPerimeter=0;" edge="1" parent="3YAbdTH7UzKuv2VdQoLU-50" source="3YAbdTH7UzKuv2VdQoLU-63" target="3YAbdTH7UzKuv2VdQoLU-73">
          <mxGeometry relative="1" as="geometry" />
        </mxCell>
        <mxCell id="3YAbdTH7UzKuv2VdQoLU-76" style="edgeStyle=orthogonalEdgeStyle;rounded=0;orthogonalLoop=1;jettySize=auto;html=1;exitX=0.5;exitY=0;exitDx=0;exitDy=0;exitPerimeter=0;entryX=0.5;entryY=1;entryDx=0;entryDy=0;" edge="1" parent="3YAbdTH7UzKuv2VdQoLU-50" source="3YAbdTH7UzKuv2VdQoLU-73" target="3YAbdTH7UzKuv2VdQoLU-66">
          <mxGeometry relative="1" as="geometry">
            <mxPoint x="1140" y="250" as="targetPoint" />
            <Array as="points">
              <mxPoint x="995" y="140" />
              <mxPoint x="1060" y="140" />
              <mxPoint x="1060" y="250" />
              <mxPoint x="1137" y="250" />
            </Array>
          </mxGeometry>
        </mxCell>
        <mxCell id="3YAbdTH7UzKuv2VdQoLU-77" style="edgeStyle=orthogonalEdgeStyle;rounded=0;orthogonalLoop=1;jettySize=auto;html=1;exitX=1;exitY=0.5;exitDx=0;exitDy=0;" edge="1" parent="3YAbdTH7UzKuv2VdQoLU-1" source="3YAbdTH7UzKuv2VdQoLU-51">
          <mxGeometry relative="1" as="geometry">
            <mxPoint x="180" y="530" as="targetPoint" />
          </mxGeometry>
        </mxCell>
        <mxCell id="3YAbdTH7UzKuv2VdQoLU-78" style="edgeStyle=orthogonalEdgeStyle;rounded=0;orthogonalLoop=1;jettySize=auto;html=1;exitX=0.5;exitY=1;exitDx=0;exitDy=0;entryX=0.5;entryY=0;entryDx=0;entryDy=0;" edge="1" parent="3YAbdTH7UzKuv2VdQoLU-1" source="3YAbdTH7UzKuv2VdQoLU-24" target="3YAbdTH7UzKuv2VdQoLU-51">
          <mxGeometry relative="1" as="geometry">
            <mxPoint x="90" y="450" as="targetPoint" />
          </mxGeometry>
        </mxCell>
        <mxCell id="3YAbdTH7UzKuv2VdQoLU-79" style="edgeStyle=orthogonalEdgeStyle;rounded=0;orthogonalLoop=1;jettySize=auto;html=1;exitX=0.5;exitY=0;exitDx=0;exitDy=0;" edge="1" parent="3YAbdTH7UzKuv2VdQoLU-1" source="3YAbdTH7UzKuv2VdQoLU-67" target="3YAbdTH7UzKuv2VdQoLU-20">
          <mxGeometry relative="1" as="geometry">
            <mxPoint x="1155" y="130" as="targetPoint" />
          </mxGeometry>
        </mxCell>
        <mxCell id="3YAbdTH7UzKuv2VdQoLU-80" value="MIP creates workflows and captures interactions" style="shape=note;whiteSpace=wrap;html=1;backgroundOutline=1;fontColor=#000000;darkOpacity=0.05;fillColor=#FFF9B2;strokeColor=none;fillStyle=solid;direction=west;gradientDirection=north;gradientColor=#FFF2A1;shadow=1;size=20;pointerEvents=1;" vertex="1" parent="1">
          <mxGeometry x="160" y="30" width="130" height="110" as="geometry" />
        </mxCell>
        <mxCell id="3YAbdTH7UzKuv2VdQoLU-81" style="edgeStyle=orthogonalEdgeStyle;rounded=0;orthogonalLoop=1;jettySize=auto;html=1;exitX=1;exitY=0.5;exitDx=0;exitDy=0;entryX=0.283;entryY=-0.033;entryDx=0;entryDy=0;entryPerimeter=0;" edge="1" parent="1" source="3YAbdTH7UzKuv2VdQoLU-9" target="3YAbdTH7UzKuv2VdQoLU-80">
          <mxGeometry relative="1" as="geometry" />
        </mxCell>
        <mxCell id="3YAbdTH7UzKuv2VdQoLU-82" value="Jasper provides putty stats" style="shape=note;whiteSpace=wrap;html=1;backgroundOutline=1;fontColor=#000000;darkOpacity=0.05;fillColor=#FFF9B2;strokeColor=none;fillStyle=solid;direction=west;gradientDirection=north;gradientColor=#FFF2A1;shadow=1;size=20;pointerEvents=1;" vertex="1" parent="1">
          <mxGeometry x="460" y="50" width="80" height="100" as="geometry" />
        </mxCell>
        <mxCell id="3YAbdTH7UzKuv2VdQoLU-83" value="MIP provides workflows" style="shape=note;whiteSpace=wrap;html=1;backgroundOutline=1;fontColor=#000000;darkOpacity=0.05;fillColor=#FFF9B2;strokeColor=none;fillStyle=solid;direction=west;gradientDirection=north;gradientColor=#FFF2A1;shadow=1;size=20;pointerEvents=1;" vertex="1" parent="1">
          <mxGeometry x="710" y="30" width="90" height="110" as="geometry" />
        </mxCell>
        <mxCell id="3YAbdTH7UzKuv2VdQoLU-84" style="edgeStyle=orthogonalEdgeStyle;rounded=0;orthogonalLoop=1;jettySize=auto;html=1;entryX=0.5;entryY=0;entryDx=0;entryDy=0;entryPerimeter=0;" edge="1" parent="1" source="3YAbdTH7UzKuv2VdQoLU-13" target="3YAbdTH7UzKuv2VdQoLU-82">
          <mxGeometry relative="1" as="geometry" />
        </mxCell>
      </root>
    </mxGraphModel>
  </diagram>
</mxfile>
